<svg width="38" height="40" viewBox="0 0 38 40" fill="none" xmlns="http://www.w3.org/2000/svg">
<path d="M37.9945 1.60562C37.9945 0.455849 37.5507 0 36.4014 0H7.5743C6.42184 0 5.97176 0.450385 5.97176 1.60562V19.2799H0.971025C0.434508 19.2799 0 19.7163 0 20.2533V32.5464C0 33.0842 0.434508 33.5198 0.971025 33.5198H5.97176V38.3944C5.97176 39.5527 6.41951 40 7.5743 40H25.9848L38 28.4211C38 19.6429 37.9945 10.387 37.9945 1.60562ZM7.09152 19.2799V1.24266H36.8841C36.8841 9.4737 36.881 19.5227 36.881 27.7514H26.7121C26.0611 27.7514 25.541 28.2822 25.541 28.9254V38.6457H7.09152V33.5198H21.157C21.6935 33.5198 22.128 33.0842 22.128 32.5464V20.2533C22.128 19.7163 21.6935 19.2799 21.157 19.2799H7.09152ZM13.0173 27.0005C13.4324 27.0005 13.4425 27.7124 13.0173 27.7124H3.1498C2.72463 27.7124 2.73475 27.0005 3.1498 27.0005H13.0173ZM3.22143 21.9424H6.63598C6.84857 21.9424 7.02221 22.1196 7.02221 22.3304V25.4604C7.02221 25.6712 6.84623 25.8484 6.63598 25.8484H3.22143C3.01041 25.8484 2.83443 25.6743 2.83443 25.4604V22.3304C2.83443 22.1165 3.00807 21.9424 3.22143 21.9424ZM8.50172 31.0579C8.91754 31.0579 8.92766 30.346 8.50172 30.346H3.1498C2.72463 30.346 2.73398 31.0579 3.1498 31.0579H8.50172ZM3.1498 28.674C2.73398 28.674 2.72463 29.3843 3.1498 29.3843H11.02C11.4459 29.3843 11.4366 28.674 11.02 28.674H3.1498ZM0.971025 20.2533H21.157V32.5464H0.971025V20.2533ZM10.4072 3.91921H15.83C16.1679 3.91921 16.4443 4.20021 16.4443 4.53508V9.50649C16.4443 9.84135 16.164 10.1224 15.83 10.1224H10.4072C10.0731 10.1224 9.79279 9.84525 9.79279 9.50649V4.53508C9.79279 4.19631 10.0692 3.91921 10.4072 3.91921ZM33.7491 4.1807C34.3152 4.1807 34.3285 5.14938 33.7491 5.14938H18.3669C17.7876 5.14938 17.8016 4.1807 18.3669 4.1807H33.7491ZM27.5991 9.86086C28.1644 9.86086 28.1784 8.8914 27.5991 8.8914H18.3669C17.7876 8.8914 17.8016 9.86086 18.3669 9.86086H27.5991ZM18.3669 6.53566C17.8016 6.53566 17.7884 7.50434 18.3669 7.50434H31.0284C31.6085 7.50434 31.5953 6.53566 31.0284 6.53566H18.3669Z" fill="#F3EFF5"/>
</svg>
