<svg width="25" height="21" viewBox="0 0 25 21" fill="none" xmlns="http://www.w3.org/2000/svg">
<g clip-path="url(#clip0_386_2)">
<path fill-rule="evenodd" clip-rule="evenodd" d="M2.10144 0H22.8045C23.9604 0 24.9057 0.945526 24.9057 2.10124C24.9057 3.25695 23.9604 4.20268 22.8045 4.20268H2.10144C0.945728 4.20268 0 3.25715 0 2.10144C0 0.945526 0.945728 0 2.10144 0ZM2.10144 16.7975H22.8045C23.9604 16.7975 24.9057 17.7431 24.9057 18.8988C24.9057 20.0545 23.9604 21 22.8045 21H2.10144C0.945728 21 0 20.0545 0 18.8988C0 17.7431 0.945728 16.7975 2.10144 16.7975ZM2.10144 8.39886H22.8045C23.9604 8.39886 24.9057 9.34439 24.9057 10.5001C24.9057 11.6558 23.9604 12.6015 22.8045 12.6015H2.10144C0.945728 12.6015 0 11.6558 0 10.5001C0 9.34439 0.945728 8.39886 2.10144 8.39886Z" fill="#454955"/>
</g>
<defs>
<clipPath id="clip0_386_2">
<rect width="24.9057" height="21" fill="white"/>
</clipPath>
</defs>
</svg>
