<svg width="42" height="40" viewBox="0 0 42 40" fill="none" xmlns="http://www.w3.org/2000/svg">
<path fill-rule="evenodd" clip-rule="evenodd" d="M30.1272 8.33628V8.36661C27.1639 7.89562 24.1639 7.69486 21.1642 7.76683C17.7454 7.77741 14.3348 8.09998 10.9746 8.73052C8.31943 -3.70651 33.6147 -1.94423 30.1272 8.33628ZM16.0795 39.0869C15.3416 39.6462 14.516 40.0977 13.303 39.6293C12.8944 39.4569 12.5248 39.2035 12.2168 38.8844C11.9087 38.5653 11.6684 38.1872 11.5104 37.7727C14.6441 39.1913 15.7662 35.1141 12.0563 34.9928C13.1884 33.645 14.8597 33.645 16.2109 34.6559C16.61 35.0023 17.066 35.2771 17.5588 35.4679C17.7784 35.5262 18.0057 35.5501 18.2327 35.5387C19.0953 35.5387 22.1447 35.4444 23.0579 35.4241C24.7797 35.3904 25.6524 32.7285 28.1122 33.6753C28.5209 33.8478 28.8904 34.1012 29.1985 34.4203C29.5065 34.7393 29.7468 35.1175 29.9048 35.532C26.7711 34.1134 25.6491 38.1905 29.3589 38.3118C28.2268 39.6765 26.5555 39.6597 25.2043 38.6657C24.6146 38.2242 24.2406 37.7087 23.0747 37.7424C22.2627 37.7761 19.2233 37.8266 18.4146 37.8839C18.1622 37.8863 17.9119 37.9295 17.6733 38.012C17.306 38.1535 16.9725 38.4399 16.0997 39.1037L16.0795 39.0869ZM9.83237 32.4084C10.0135 32.4091 10.1904 32.4634 10.3406 32.5645C10.4909 32.6656 10.6079 32.809 10.6767 32.9765C10.7456 33.144 10.7632 33.3282 10.7275 33.5058C10.6917 33.6833 10.6042 33.8463 10.4759 33.9742C10.3476 34.102 10.1843 34.189 10.0066 34.2241C9.82887 34.2591 9.64476 34.2408 9.47748 34.1713C9.31021 34.1019 9.16727 33.9844 9.06671 33.8337C8.96615 33.6831 8.91248 33.506 8.91248 33.3249C8.91248 33.2043 8.93629 33.0848 8.98256 32.9734C9.02883 32.862 9.09664 32.7608 9.18211 32.6756C9.26757 32.5905 9.36901 32.523 9.48059 32.4772C9.59218 32.4313 9.71172 32.4079 9.83237 32.4084ZM31.9299 32.4084C32.1106 32.411 32.2864 32.4671 32.4354 32.5694C32.5843 32.6717 32.6997 32.8157 32.767 32.9834C32.8343 33.1511 32.8505 33.3349 32.8137 33.5118C32.7768 33.6887 32.6885 33.8508 32.5598 33.9776C32.4311 34.1044 32.2677 34.1904 32.0903 34.2247C31.9129 34.259 31.7293 34.24 31.5627 34.1703C31.396 34.1005 31.2536 33.9831 31.1535 33.8327C31.0534 33.6823 30.9999 33.5056 30.9999 33.3249C30.9995 33.2044 31.0229 33.085 31.0688 32.9736C31.1147 32.8622 31.1822 32.761 31.2674 32.6758C31.3526 32.5906 31.4538 32.5231 31.5652 32.4772C31.6766 32.4313 31.796 32.4079 31.9164 32.4084H31.9299ZM15.4191 22.2997C13.8826 23.378 12.2753 23.779 10.7017 24.0654L12.9425 30.4102H29.2174L30.9797 24.1092C29.5813 23.9677 28.2841 23.8565 27.253 23.3173C26.7654 22.9966 26.3443 22.5847 26.013 22.1043L25.9456 21.0564C26.3207 20.751 26.6598 20.4039 26.9564 20.0219C27.6304 19.1795 27.8898 17.8283 28.2133 16.7265C28.2773 16.494 28.3413 16.2615 28.4222 16.029C29.0557 15.965 29.6117 15.2506 29.9486 14.3712C30.1427 13.8771 30.2697 13.3591 30.326 12.8313C30.3959 12.383 30.3338 11.924 30.1474 11.5104C30.0845 11.3827 29.9892 11.2737 29.8709 11.1945C29.7526 11.1152 29.6156 11.0685 29.4735 11.0589C29.4956 10.5858 29.5806 10.1179 29.7262 9.66726C26.8947 9.23651 24.0309 9.05386 21.1676 9.12139C17.838 9.13195 14.5165 9.44663 11.2442 10.0615L11.534 11.4329C11.3078 11.9126 11.2349 12.4502 11.3251 12.9728C11.3918 13.5761 11.5628 14.1633 11.8305 14.7081C12.1675 15.382 12.6459 15.8335 13.2019 15.8335C13.2558 15.9885 13.3199 16.1705 13.3704 16.3255C13.8253 17.6733 14.1589 19.1526 14.9743 20.1129C15.2056 20.3935 15.4603 20.6539 15.7358 20.8912L15.6718 22.0706C15.5943 22.1447 15.5134 22.2155 15.4292 22.2896L15.4191 22.2997ZM8.12063 24.5337C5.22955 25.1908 2.69564 26.6195 1.26695 32.8869L0 40H6.87389V31.7345C6.87389 31.377 7.0159 31.0342 7.26866 30.7814C7.52143 30.5287 7.86425 30.3867 8.22172 30.3867H9.65041C9.58976 28.0617 8.42726 25.6221 8.13074 24.5236L8.12063 24.5337ZM34.8884 40H41.4051L40.0573 32.523C38.8072 26.9093 36.2867 25.1773 33.6551 24.5135C33.3889 25.6154 32.5735 28.22 32.5297 30.3968H33.5406C33.898 30.3968 34.2408 30.5388 34.4936 30.7915C34.7464 31.0443 34.8884 31.3871 34.8884 31.7446V40.0101V40ZM17.9698 4.49499H23.4353C23.4969 4.49499 23.5561 4.51948 23.5997 4.56309C23.6433 4.60669 23.6678 4.66582 23.6678 4.72749V5.9877C23.6678 6.04968 23.6434 6.10917 23.5999 6.15331C23.5564 6.19744 23.4972 6.22268 23.4353 6.22357H17.9698C17.9079 6.22268 17.8487 6.19744 17.8052 6.15331C17.7617 6.10917 17.7373 6.04968 17.7373 5.9877V4.71738C17.7373 4.65572 17.7618 4.59658 17.8054 4.55298C17.849 4.50937 17.9082 4.48488 17.9698 4.48488V4.49499ZM25.1301 21.4708C23.6678 22.4446 22.7715 22.9804 20.8879 22.9332C19.0043 22.886 18.0878 22.2829 16.6187 21.3562C16.5108 27.4922 25.2717 27.8561 25.1301 21.4708ZM27.3204 16.5344C27.3979 16.2615 27.4888 15.9751 27.5899 15.6415C27.6083 15.5691 27.6531 15.5062 27.7154 15.4651C27.7777 15.424 27.8531 15.4076 27.9269 15.4191C28.3548 15.4966 28.7827 14.8766 29.0793 14.1252C29.252 13.6804 29.3653 13.2147 29.4162 12.7403C29.4701 12.3992 29.4305 12.0498 29.3017 11.7294C29.1837 11.5171 28.867 11.6418 28.6277 11.4329C27.4012 14.6845 16.713 16.1503 12.3393 11.6789C12.1785 12.05 12.1328 12.4608 12.2079 12.8582C12.2728 13.3933 12.4265 13.9137 12.6628 14.3981C12.9324 14.9271 13.2828 15.291 13.6332 15.2001C13.7019 15.1835 13.7744 15.1929 13.8366 15.2265C13.8988 15.26 13.9464 15.3155 13.9702 15.382C14.0746 15.6651 14.1387 15.8841 14.2162 16.1065C16.4434 23.1623 25.056 23.725 27.3237 16.5209L27.3204 16.5344Z" fill="#F3EFF5"/>
</svg>
