<svg width="45" height="40" viewBox="0 0 45 40" fill="none" xmlns="http://www.w3.org/2000/svg">
<path fill-rule="evenodd" clip-rule="evenodd" d="M4.17597 36.9995V21.366C3.32699 21.6925 2.53244 21.6998 1.87212 21.4748C1.35693 21.3007 0.921552 20.9887 0.602278 20.5859C0.283003 20.1832 0.0798288 19.6934 0.0181508 19.1528C-0.0761803 18.3147 0.17416 17.3678 0.888899 16.4789C0.92518 16.4354 0.96509 16.3918 1.01226 16.3556L21.7143 0.199548C21.9828 -0.0471637 22.3964 -0.0725605 22.6939 0.159639L43.4395 16.2866C43.4721 16.312 43.5011 16.3374 43.5302 16.3701C44.4916 17.4041 44.7311 18.5506 44.4989 19.5193C44.3828 19.9982 44.1542 20.4263 43.8386 20.7819C43.5229 21.1374 43.1202 21.4132 42.663 21.5764C41.9374 21.8376 41.0739 21.8304 40.1996 21.4168V36.9959H43.1021V39.9964H1.48028V36.9959H4.17597V36.9995ZM38.1678 36.9995V20.5279C38.1678 20.1615 23.9347 8.91066 22.3674 7.68798C20.7021 8.9542 6.21135 20.1143 6.21135 20.5859V36.9995H38.1678ZM22.8209 19.2508C22.3456 19.0658 21.8522 18.9678 21.3442 18.9678C20.5823 18.9678 19.9547 19.2109 19.4612 19.6971L15.2127 23.9419L15.6553 24.3882L14.0445 26.01L11.3306 23.2925L12.9415 21.6816L13.4422 22.1714L17.6653 17.9519C18.2458 17.3751 18.8699 17.0884 19.5374 17.0884C20.6585 17.0848 21.7506 17.8068 22.8209 19.2508ZM29.2644 18.0499C29.7252 18.0499 30.1678 18.1297 30.5814 18.2712L29.5329 19.4068C27.1528 21.9828 29.8377 23.4739 32.2068 21.7034L33.1211 21.0213C33.2045 21.3442 33.2517 21.6853 33.2517 22.0336C33.2517 24.2358 31.4667 26.0209 29.2644 26.0209C28.546 26.0209 27.8712 25.8322 27.2907 25.4984L25.3533 27.5556C27.1746 29.3007 28.9996 31.0458 30.8209 32.7873L28.3465 35.2617C26.6231 33.4621 24.8998 31.6662 23.1764 29.8667L19.7805 33.4694C19.5229 33.9084 19.044 34.2059 18.4962 34.2059C17.6762 34.2059 17.0086 33.542 17.0086 32.7184C17.0086 32.3628 17.132 32.0363 17.3424 31.7823H17.3388L17.3533 31.7714C17.4621 31.6408 17.5891 31.532 17.7343 31.4449L21.551 28.1723L16.849 23.2381L18.8009 21.2862C20.615 23.0277 22.0844 24.4245 23.8984 26.1624L26.0136 24.3483C25.5492 23.6952 25.2771 22.8971 25.2771 22.0372C25.2771 19.8349 27.0621 18.0499 29.2644 18.0499ZM16.2504 18.7465L14.3093 20.6875L13.5365 19.9147L15.4776 17.9737L16.2504 18.7465Z" fill="#F3EFF5"/>
</svg>
