<svg width="40" height="40" viewBox="0 0 40 40" fill="none" xmlns="http://www.w3.org/2000/svg">
<path d="M6.18491 22.8353C4.63869 23.1608 3.04038 23.1934 1.4909 21.6016C0.455746 20.5404 -0.061832 18.9551 1.69873e-05 17.2949C3.96161 21.901 8.78908 16.2077 2.9297 13.2487C5.75848 11.9075 8.42775 13.1673 9.84377 15.7747C10.5143 17.0052 10.9147 17.6497 11.4258 18.0892C11.5184 18.1704 11.6163 18.2455 11.7188 18.3138C11.9355 17.6925 12.3767 17.1746 12.9557 16.862C13.2828 16.6926 13.6454 16.6033 14.0137 16.6016C15.0488 16.6016 16.3379 17.22 16.556 18.2747C16.6026 18.2616 16.6508 18.2551 16.6992 18.2552H17.4512C17.4912 18.2502 17.5316 18.2502 17.5716 18.2552C17.9691 18.2917 18.3436 18.4577 18.6376 18.7276C18.9316 18.9975 19.1289 19.3565 19.1992 19.7493C19.2714 19.715 19.3504 19.6972 19.4304 19.6973H20.1823C20.2223 19.6923 20.2628 19.6923 20.3028 19.6973C21.3802 19.8633 21.8164 20.5273 21.9694 21.3639H22.0541H22.806C22.846 21.359 22.8865 21.359 22.9264 21.3639C24.1634 21.556 24.6485 22.3665 24.8373 23.3431C27.1159 22.9948 29.5801 21.6276 31.9987 24.1016C32.5252 24.6814 32.9284 25.3621 33.1841 26.1023C33.4399 26.8426 33.5427 27.627 33.4863 28.4082C29.5248 23.8021 24.6973 29.4954 30.5567 32.4544C28.125 33.6068 25.8073 32.8353 24.3067 30.9375C24.1018 31.4933 23.8468 32.0294 23.5449 32.5391C23.4212 32.7409 23.2943 32.9492 23.1315 33.2357C23.1298 33.2432 23.1298 33.251 23.1315 33.2585C23.0037 33.4838 22.8624 33.7012 22.7084 33.9095H23.2292C23.4448 33.9104 23.6512 33.9964 23.8037 34.1488C23.9561 34.3012 24.0421 34.5077 24.043 34.7233V39.1536C24.0421 39.3692 23.9561 39.5757 23.8037 39.7281C23.6512 39.8806 23.4448 39.9666 23.2292 39.9674H11.4356C11.22 39.9666 11.0135 39.8806 10.8611 39.7281C10.7086 39.5757 10.6226 39.3692 10.6218 39.1536V34.7559C10.6226 34.5403 10.7086 34.3338 10.8611 34.1814C11.0135 34.0289 11.22 33.9429 11.4356 33.9421H11.7188C11.5768 33.5426 11.4785 33.129 11.4258 32.7083L7.36981 26.0644L7.35028 26.0417C7.02931 25.6128 6.75641 25.1499 6.53648 24.6615C6.34692 24.2503 6.22806 23.8101 6.18491 23.3594C6.17181 23.1893 6.17181 23.0184 6.18491 22.8483V22.8353ZM36.1328 11.9987C36.1099 11.9109 36.0689 11.8288 36.0124 11.7578C35.9638 11.6934 35.9 11.642 35.8268 11.6081C35.7574 11.567 35.6794 11.5425 35.599 11.5365C35.5155 11.5341 35.4322 11.5439 35.3516 11.5658H35.332L32.9362 12.2949C32.7115 12.368 32.468 12.3571 32.2507 12.2643C32.0335 12.1716 31.8572 12.0032 31.7546 11.7904C31.6309 11.582 31.5104 11.377 31.3639 11.1393C31.2175 10.9017 31.0384 10.6901 30.9115 10.4883C30.7845 10.2865 30.599 10.0911 30.4037 9.88932C30.2084 9.6875 30.0781 9.51823 29.8535 9.29362C29.7101 9.14146 29.6177 8.94841 29.5891 8.7413C29.5606 8.53419 29.5972 8.32333 29.694 8.13802L30.9668 5.74544C31.0105 5.67503 31.0371 5.59536 31.0444 5.51283C31.0518 5.4303 31.0397 5.3472 31.0091 5.27018C30.9881 5.19429 30.954 5.12268 30.9082 5.05859C30.8544 4.99165 30.7866 4.93723 30.7097 4.89909L27.6953 3.29427C27.6255 3.25658 27.5511 3.22813 27.474 3.20963C27.3837 3.20789 27.2937 3.21996 27.207 3.24544C27.1324 3.26276 27.0638 3.29986 27.0085 3.35286C26.9415 3.4067 26.8871 3.47446 26.849 3.55143L25.6771 5.74869C25.5658 5.95806 25.3849 6.12203 25.1656 6.21235C24.9463 6.30267 24.7024 6.31368 24.4759 6.24349C24.209 6.17513 23.9583 6.11002 23.737 6.06445C23.5156 6.01888 23.2357 5.9733 22.9688 5.9375C22.7096 5.90344 22.4488 5.8828 22.1875 5.87565C21.9141 5.85612 21.6602 5.87565 21.416 5.85612C21.1973 5.86441 20.9821 5.79895 20.805 5.67026C20.6279 5.54157 20.4992 5.35711 20.4395 5.14648L19.6257 2.50976C19.6257 2.49023 19.6257 2.49023 19.6257 2.47721C19.6036 2.40126 19.5707 2.3289 19.528 2.26237C19.4182 2.151 19.2733 2.08087 19.1179 2.0638C19.0273 2.0564 18.9363 2.06862 18.8509 2.09961L15.625 3.08593C15.5371 3.10693 15.4549 3.14693 15.3841 3.20312C15.3202 3.25308 15.268 3.31641 15.2311 3.38867C15.1894 3.45879 15.1659 3.53825 15.1628 3.61979C15.159 3.70223 15.1689 3.78473 15.1921 3.86393V3.8802L15.9245 6.27278C15.9927 6.49847 15.9791 6.74097 15.8863 6.95766C15.7934 7.17436 15.6271 7.3514 15.4167 7.45768C15.2084 7.57812 15.0033 7.69856 14.7656 7.8483C14.528 7.99804 14.3164 8.15755 14.1146 8.30078C13.9128 8.44401 13.6914 8.6263 13.4929 8.80208C13.2943 8.97786 13.1185 9.1276 12.8972 9.35546C12.7433 9.50073 12.5477 9.59397 12.338 9.62201C12.1283 9.65005 11.9151 9.61147 11.7285 9.51171L9.33921 8.23893C9.264 8.19708 9.18081 8.17157 9.09507 8.16406C9.01961 8.16374 8.94432 8.17138 8.87046 8.18685C8.79616 8.20323 8.7276 8.2392 8.67189 8.29101C8.60403 8.34524 8.54947 8.41428 8.51239 8.49284L8.38218 8.73372C7.66076 8.59418 6.92342 8.55583 6.19142 8.61979L6.77085 7.52929C6.93542 7.22087 7.15623 6.94596 7.42189 6.71875C7.69335 6.49987 8.00369 6.3342 8.33661 6.23046C8.67106 6.12607 9.023 6.08955 9.37176 6.12304C9.71466 6.17003 10.0458 6.28042 10.3483 6.44856L12.1159 7.39257L12.2461 7.28515C12.474 7.08658 12.7181 6.89778 12.9623 6.70573C13.2064 6.51367 13.4701 6.32161 13.711 6.16536L13.7956 6.10351L13.3073 4.45963C13.1974 4.12746 13.1607 3.77542 13.1999 3.42773C13.2303 3.07866 13.3322 2.73959 13.4994 2.43164C13.6589 2.1227 13.8805 1.85007 14.1504 1.63086C14.4217 1.40992 14.7335 1.24406 15.0684 1.14257L18.3203 0.13346C18.6508 0.0255365 18.9986 -0.0197269 19.3457 -3.76068e-06C19.695 0.0291695 20.0343 0.131186 20.3418 0.299475C20.6551 0.470614 20.9325 0.700495 21.1589 0.976559C21.3744 1.24493 21.5288 1.55709 21.6113 1.89127L22.207 3.80533C22.2536 3.81008 22.3005 3.81008 22.347 3.80533C22.64 3.82161 22.9427 3.85742 23.2617 3.88672C23.5807 3.91601 23.8705 3.97786 24.1764 4.03645C24.2205 4.03859 24.2637 4.04966 24.3034 4.06901L25.1042 2.56185C25.265 2.25347 25.4871 1.9812 25.7569 1.76177C26.0267 1.54234 26.3385 1.38037 26.6732 1.2858H26.6927C27.0198 1.1834 27.3643 1.14906 27.7051 1.18489C28.0458 1.21975 28.377 1.31801 28.6817 1.47461L31.6927 3.08268C32.0013 3.24705 32.2762 3.46789 32.5033 3.73372C32.7286 4.00211 32.8949 4.31486 32.9916 4.65169C33.0962 4.98497 33.1327 5.3359 33.099 5.68359C33.054 6.02695 32.9435 6.35847 32.7735 6.66015L31.8294 8.43099C31.8653 8.46679 31.9043 8.52213 31.9401 8.55794C32.1354 8.78906 32.3275 9.02994 32.5163 9.27409C32.7051 9.51823 32.9037 9.7819 33.0567 10.0228L33.1185 10.1107L34.7624 9.61914C35.0948 9.51021 35.4468 9.47467 35.7943 9.51497C36.1428 9.54579 36.4816 9.64653 36.7904 9.81119C37.0997 9.97007 37.3725 10.1918 37.5912 10.4622V10.4883C37.8121 10.7596 37.978 11.0714 38.0794 11.4062L39.056 14.6322H39.0723C39.1712 14.9622 39.2098 15.3073 39.1862 15.651C39.1556 16.0001 39.0536 16.3391 38.8867 16.6471C38.7216 16.9524 38.5008 17.224 38.2357 17.4479C37.9655 17.6651 37.6511 17.8207 37.3145 17.9036L35.4004 18.4993C35.4004 18.5482 35.4004 18.6035 35.4004 18.6523C35.4004 18.9486 35.3516 19.248 35.3223 19.5345C35.3223 19.5345 35.3223 19.5703 35.3223 19.5833C35.2836 19.8942 35.2281 20.2028 35.1563 20.5078L35.1335 20.6185L36.6537 21.429C36.965 21.5863 37.2391 21.8083 37.4577 22.0801C37.6736 22.3486 37.834 22.6573 37.9297 22.9883V23.0111C38.0321 23.337 38.0665 23.6804 38.0306 24.0202C37.9962 24.3614 37.8968 24.6929 37.7376 24.9967L37.4968 25.4492L37.0671 25.2181C36.7461 24.3016 36.268 23.4479 35.6543 22.6953C35.6087 22.6335 35.5599 22.5749 35.5078 22.5163C34.8192 21.6942 33.9863 21.0047 33.0501 20.4818C33.0794 20.3613 33.1087 20.2376 33.1348 20.1139C33.1771 19.8698 33.2259 19.6126 33.2552 19.3262C33.2552 19.3262 33.2552 19.2904 33.2552 19.2773C33.291 19.0137 33.3106 18.776 33.3301 18.5384C33.3496 18.3008 33.3594 18.0208 33.3529 17.7669C33.3446 17.5482 33.41 17.333 33.5387 17.1559C33.6674 16.9788 33.8519 16.85 34.0625 16.7904L36.696 15.9766C36.696 15.9766 36.7188 15.9766 36.7318 15.9766C36.807 15.9552 36.8783 15.9223 36.9434 15.8789C37.0009 15.8302 37.0466 15.7689 37.0768 15.6999C37.1157 15.6285 37.139 15.5497 37.1452 15.4687C37.1526 15.3782 37.1404 15.2872 37.1094 15.2018L36.1328 11.9792V11.9987ZM25.0651 10.9928C25.5215 11.232 25.9505 11.5201 26.3444 11.8522C26.7383 12.1762 27.0982 12.5394 27.4186 12.9362C27.7208 13.3262 27.9929 13.7386 28.2324 14.1699C28.4657 14.5972 28.6534 15.0478 28.7923 15.5143C28.9399 15.984 29.0338 16.4688 29.0723 16.9596C29.126 17.4508 29.126 17.9463 29.0723 18.4375C29.0723 18.4733 29.0723 18.4993 29.0723 18.5221C29.0328 18.9366 28.9587 19.3471 28.8509 19.7493C28.3171 19.8014 27.7865 19.8861 27.2624 19.9805L26.7806 19.7233C26.8229 19.6126 26.8587 19.4987 26.8945 19.3815C26.9932 19.0474 27.0629 18.7054 27.1029 18.3594C27.0996 18.3356 27.0996 18.3115 27.1029 18.2878C27.1404 17.9154 27.1404 17.5403 27.1029 17.168C27.0686 16.8119 27.0011 16.4599 26.9011 16.1165C26.7983 15.7767 26.6586 15.4493 26.4844 15.14C26.3069 14.8097 26.0988 14.4969 25.8626 14.2057C25.6251 13.913 25.3578 13.6457 25.0651 13.4082C24.468 12.9232 23.7827 12.5585 23.0469 12.334C22.7128 12.2353 22.3708 12.1656 22.0248 12.1256C22.0011 12.1303 21.9768 12.1303 21.9531 12.1256C21.5807 12.0914 21.2058 12.0914 20.8333 12.1256C20.4772 12.161 20.1252 12.2296 19.7819 12.3307C19.4421 12.4334 19.1146 12.5732 18.8054 12.7474C18.4752 12.9237 18.1624 13.1308 17.8711 13.3659C17.5821 13.6017 17.3171 13.8656 17.0801 14.1536C17.0052 14.2415 16.9304 14.3359 16.8587 14.4368L15.0814 13.4896C15.2234 13.2746 15.3777 13.0681 15.5436 12.8711C15.859 12.48 16.2134 12.1223 16.6016 11.8034C16.9907 11.4991 17.4033 11.2259 17.8353 10.9863C18.2735 10.7545 18.7323 10.5638 19.2057 10.4167C19.6711 10.2728 20.1499 10.1768 20.6348 10.1302C21.1271 10.0781 21.6236 10.0781 22.1159 10.1302C22.1485 10.1302 22.1778 10.1465 22.1973 10.1302C22.6769 10.1761 23.1511 10.2676 23.6133 10.4036C24.1061 10.5547 24.5844 10.7497 25.0423 10.9863L25.0651 10.9928ZM12.7311 18.8053V18.8379V18.8802V18.9486V18.9844V19.0202V19.1309V19.2057V19.2448V19.3197V19.362V19.4043V19.5312V19.5736V19.6191V19.7005V25.7161C12.7369 25.7913 12.7272 25.8668 12.7024 25.938C12.6776 26.0092 12.6384 26.0745 12.5872 26.1298C12.536 26.1851 12.4739 26.2292 12.4049 26.2594C12.3358 26.2896 12.2613 26.3052 12.1859 26.3052C12.1105 26.3052 12.036 26.2896 11.9669 26.2594C11.8978 26.2292 11.8358 26.1851 11.7846 26.1298C11.7334 26.0745 11.6941 26.0092 11.6694 25.938C11.6446 25.8668 11.6348 25.7913 11.6406 25.7161V24.707C11.612 24.6908 11.5848 24.6723 11.5593 24.6517L10.3516 23.8151L8.93882 22.653C8.79456 22.5314 8.63473 22.4296 8.46356 22.3503H8.09572C7.93978 22.3113 7.77591 22.3181 7.62372 22.3698C7.56546 22.3944 7.51271 22.4304 7.46855 22.4757C7.4244 22.521 7.38972 22.5746 7.36655 22.6335H7.334C7.26748 22.8559 7.24536 23.0893 7.2689 23.3203C7.30235 23.6477 7.39152 23.967 7.53257 24.2643C7.72102 24.6637 7.95242 25.0414 8.22267 25.3906C8.22267 25.3906 8.24546 25.4232 8.25523 25.4427L12.3893 32.2005C12.4394 32.2743 12.4707 32.3592 12.4805 32.4479C12.5157 32.9705 12.661 33.4796 12.9069 33.9421H21.1589C21.5753 33.6261 21.9175 33.2228 22.1615 32.7604C22.1668 32.7499 22.1734 32.7401 22.181 32.7311C22.2982 32.5293 22.4544 32.2721 22.6074 32.0215C23.0092 31.3232 23.322 30.5774 23.5384 29.8014V29.7819V29.7493V29.7298V29.6973V29.6745V29.6419L23.558 29.5768V29.5443V29.515V29.4824V29.4596V29.4271V29.3945V29.362V29.2969V29.2643V29.235V29.2025V29.1699V29.1439V29.1113V29.0885V29.056V29.0234V28.9909V28.9681V28.9355V28.9095V28.8802V28.8477V28.8184V28.7858V28.7533V28.724V28.6296V28.597V28.5645V28.5352V28.5026V28.4733V28.4408V28.1673V27.8418L23.5156 25.9863C23.514 25.9603 23.514 25.9342 23.5156 25.9082C23.5156 25.8822 23.5156 25.7064 23.5156 25.472V25.4134V25.013V24.9512V24.5312V24.4694V24.1211V24.0658V24.0072V23.9453V23.916V23.7077V23.6816V23.6523V23.623V23.5937V23.571V23.5417V23.5156V23.4863V23.4375C23.4763 23.1986 23.3652 22.9772 23.1972 22.8028C23.0292 22.6284 22.8122 22.5092 22.5749 22.4609H22.0508C22.0508 22.6139 22.0508 22.7637 22.0508 22.9167V22.9492V22.9753V23.112V23.1445V23.1673V23.1836V23.1999V23.2161C22.0313 23.5189 22.015 23.8151 22.015 24.095C22.015 24.2401 21.9574 24.3792 21.8548 24.4817C21.7523 24.5843 21.6132 24.6419 21.4681 24.6419C21.3231 24.6419 21.184 24.5843 21.0814 24.4817C20.9789 24.3792 20.9212 24.2401 20.9212 24.095C20.9212 23.8151 20.944 23.4896 20.9636 23.151V23.0436V22.9883V22.9395V22.832V22.7767V22.7279V22.6725V22.8516V22.7409V22.6335V22.526V22.4609C20.9636 21.6406 20.8171 20.9277 20.1563 20.8073H19.4336C19.3947 20.8124 19.3553 20.8124 19.3164 20.8073C19.3164 21.1133 19.3164 21.4323 19.2904 21.7415V22.0671C19.2709 22.3698 19.2546 22.6628 19.2546 22.9427C19.2546 23.0877 19.197 23.2268 19.0944 23.3294C18.9918 23.432 18.8527 23.4896 18.7077 23.4896C18.5627 23.4896 18.4236 23.432 18.321 23.3294C18.2184 23.2268 18.1608 23.0877 18.1608 22.9427C18.1608 22.6628 18.1836 22.3372 18.2031 21.9987V21.9434V21.8945V21.8424V21.7871V21.7318V21.6764V21.5723V21.5202V21.4648V21.4193V21.3639V21.3086V21.2858C18.2292 20.3613 18.1283 19.5085 17.3991 19.375H16.696C16.6486 19.3754 16.6015 19.3688 16.556 19.3555V21.4681C16.556 21.6131 16.4984 21.7522 16.3958 21.8548C16.2933 21.9574 16.1542 22.015 16.0091 22.015C15.8641 22.015 15.725 21.9574 15.6224 21.8548C15.5199 21.7522 15.4623 21.6131 15.4623 21.4681V18.7988C15.4623 18.0436 14.7136 17.7181 14.0137 17.7181C13.8168 17.7185 13.6227 17.7654 13.4473 17.8548C13.0845 18.0724 12.8206 18.4226 12.7116 18.8314L12.7311 18.8053ZM11.4876 22.7865L10.9733 22.5749C10.7396 22.4796 10.5004 22.3981 10.2572 22.3307L11.0417 22.9818L11.4876 23.3464V22.7865Z" fill="#F3EFF5"/>
</svg>
