<svg width="459" height="407" viewBox="0 0 459 407" fill="none" xmlns="http://www.w3.org/2000/svg">
<g opacity="0.52" clip-path="url(#clip0_5_30)">
<path fill-rule="evenodd" clip-rule="evenodd" d="M49.5308 120.364C10.982 100.721 15.427 78.8708 54.1253 81.1531L62.7913 97.2789L80.6836 41.7551C87.7061 19.8673 99.3977 0 122.295 0H350.824C373.722 0 386.945 19.4932 392.473 41.7551L405.883 95.7075L413.616 81.1531C453.434 78.8333 456.983 101.993 414.848 122.01L421.684 132.524C446.449 158.003 447.01 183.446 443.76 238.82C439.579 236.302 435.222 234.089 430.723 232.197C376.822 209.748 346.08 232.758 316.907 254.646C307.419 261.755 298.231 268.565 293.412 268.527L165.626 269.388C163.683 269.388 161.89 269.388 160.882 269.088L160.247 268.864H159.686C157.912 268.18 156.23 267.275 154.681 266.17C151.17 263.888 145.903 259.847 138.731 254.197C115.348 235.752 88.0796 226.286 60.9983 227.782C45.2008 228.612 29.831 233.218 16.1741 241.214C11.9905 190.816 9.2637 146.48 49.5308 120.364ZM120.502 184.456L70.9717 178.207C59.3174 176.935 56.0303 181.949 60.1765 191.901L65.4807 204.884C66.987 207.942 69.299 210.53 72.167 212.367C75.5716 214.351 79.4346 215.408 83.3731 215.435L127.376 215.772C138.021 215.772 142.616 211.469 139.291 201.704C138.117 197.362 135.74 193.442 132.435 190.396C129.13 187.351 125.032 185.304 120.615 184.493L120.502 184.456ZM338.572 184.456L387.916 178.207C399.571 176.935 402.858 181.949 398.749 191.901L393.407 204.884C391.901 207.942 389.589 210.53 386.721 212.367C383.32 214.359 379.455 215.417 375.515 215.435L331.513 215.772C320.867 215.772 316.272 211.469 319.597 201.704C320.779 197.366 323.159 193.451 326.462 190.406C329.766 187.362 333.86 185.313 338.273 184.493L338.572 184.456ZM81.356 109.626H386.123L372.676 53.5034C368.941 36.4422 358.407 21.6633 340.926 21.6633H129.878C112.434 21.6633 103.469 36.8537 98.1277 53.5034L81.3186 109.626H81.356Z" fill="#0D0A0B"/>
<path fill-rule="evenodd" clip-rule="evenodd" d="M42.1348 401.537C23.2339 393.68 8.06836 376.469 0 355.031C75.0432 391.884 105.3 293.558 15.2776 287.684C43.7783 255.32 84.3069 256.854 116.394 282.146C131.522 294.082 140.076 300.143 148.928 302.912C154.095 304.433 159.456 305.189 164.841 305.156L293.113 304.259C334.986 304.857 358.071 241.102 416.865 265.646C435.766 273.503 450.894 290.752 459 312.153C383.957 275.299 353.663 373.663 443.722 379.5C415.222 411.864 374.693 410.367 342.606 385.037C328.562 373.813 319.896 361.054 291.544 360.98L167.232 362.588C161.105 362.493 155.001 363.377 149.153 365.208C143.699 367.324 138.549 370.155 133.838 373.626C103.619 394.279 81.5427 418.225 42.1348 401.762V401.537Z" fill="#0D0A0B"/>
</g>
<defs>
<clipPath id="clip0_5_30">
<rect width="459" height="407" fill="white"/>
</clipPath>
</defs>
</svg>
