<svg width="433" height="270" viewBox="0 0 433 270" fill="#0D0A0B" xmlns="http://www.w3.org/2000/svg">
<path fill-rule="evenodd" clip-rule="evenodd" d="M36.5308 120.364C-2.01803 100.721 2.42703 78.8708 41.1253 81.1531L49.7913 97.2789L67.6836 41.7551C74.7061 19.8673 86.3977 0 109.295 0H337.824C360.722 0 373.945 19.4932 379.473 41.7551L392.883 95.7075L400.616 81.1531C440.434 78.8333 443.983 101.993 401.848 122.01L408.684 132.524C433.449 158.003 434.01 183.446 430.76 238.82C426.579 236.302 422.222 234.089 417.723 232.197C363.822 209.748 333.08 232.758 303.907 254.646C294.419 261.755 285.231 268.565 280.412 268.527L152.626 269.388C150.683 269.388 148.89 269.388 147.882 269.088L147.247 268.864H146.686C144.912 268.18 143.23 267.275 141.681 266.17C138.17 263.888 132.903 259.847 125.731 254.197C102.348 235.752 75.0796 226.286 47.9983 227.782C32.2008 228.612 16.831 233.218 3.1741 241.214C-1.00949 190.816 -3.7363 146.48 36.5308 120.364ZM107.502 184.456L57.9717 178.207C46.3174 176.935 43.0303 181.949 47.1765 191.901L52.4807 204.884C53.987 207.942 56.299 210.53 59.167 212.367C62.5716 214.351 66.4346 215.408 70.3731 215.435L114.376 215.772C125.021 215.772 129.616 211.469 126.291 201.704C125.117 197.362 122.74 193.442 119.435 190.396C116.13 187.351 112.032 185.304 107.615 184.493L107.502 184.456ZM325.572 184.456L374.916 178.207C386.571 176.935 389.858 181.949 385.749 191.901L380.407 204.884C378.901 207.942 376.589 210.53 373.721 212.367C370.32 214.359 366.455 215.417 362.515 215.435L318.513 215.772C307.867 215.772 303.272 211.469 306.597 201.704C307.779 197.366 310.159 193.451 313.462 190.406C316.766 187.362 320.86 185.313 325.273 184.493L325.572 184.456ZM68.356 109.626H373.123L359.676 53.5034C355.941 36.4422 345.407 21.6633 327.926 21.6633H116.878C99.4341 21.6633 90.4693 36.8537 85.1277 53.5034L68.3186 109.626H68.356Z" fill="#0D0A0B"/>
</svg>
