<svg width="459" height="147" viewBox="0 0 459 147" fill="none" xmlns="http://www.w3.org/2000/svg">
<path fill-rule="evenodd" clip-rule="evenodd" d="M42.1348 141.537C23.2339 133.68 8.06836 116.469 0 95.0306C75.0432 131.884 105.3 33.5578 15.2776 27.6837C43.7783 -4.68025 84.3069 -3.14623 116.394 22.1463C131.522 34.0817 140.076 40.1429 148.928 42.9116C154.095 44.4327 159.456 45.189 164.841 45.1565L293.113 44.2585C334.986 44.8572 358.071 -18.8979 416.865 5.64628C435.766 13.5034 450.894 30.7517 459 52.1531C383.957 15.2993 353.663 113.663 443.722 119.5C415.222 151.864 374.693 150.367 342.606 125.037C328.562 113.813 319.896 101.054 291.544 100.98L167.232 102.588C161.105 102.493 155.001 103.377 149.153 105.208C143.699 107.324 138.549 110.155 133.838 113.626C103.619 134.279 81.5427 158.225 42.1348 141.762V141.537Z" fill="#0D0A0B"/>
</svg>
